<?xml version="1.0" standalone="no"?>
<!DOCTYPE svg PUBLIC "-//W3C//DTD SVG 20010904//EN"
 "http://www.w3.org/TR/2001/REC-SVG-20010904/DTD/svg10.dtd">
<svg version="1.0" xmlns="http://www.w3.org/2000/svg"
 width="700.000000pt" height="700.000000pt" viewBox="0 0 700.000000 700.000000"
 preserveAspectRatio="xMidYMid meet">
<metadata>
Created by potrace 1.11, written by Peter Selinger 2001-2013
</metadata>
<g transform="translate(0.000000,700.000000) scale(0.100000,-0.100000)"
fill="#000000" stroke="none">
<path d="M1939 6020 c-19 -5 -31 -29 -71 -140 -26 -74 -56 -157 -67 -185 -11
-27 -34 -90 -51 -140 -17 -49 -35 -99 -40 -110 -5 -11 -18 -47 -30 -80 -11
-33 -23 -67 -27 -75 -3 -8 -7 -19 -9 -25 -1 -5 -73 -203 -159 -440 -87 -236
-175 -477 -196 -535 -21 -58 -56 -157 -79 -220 -23 -63 -59 -162 -80 -220 -21
-58 -75 -206 -120 -330 -45 -124 -96 -263 -112 -310 -16 -47 -35 -98 -42 -115
-8 -16 -44 -115 -81 -220 -37 -104 -72 -201 -78 -215 -5 -14 -11 -29 -13 -35
-1 -5 -16 -48 -34 -95 -17 -47 -42 -114 -55 -150 -12 -36 -50 -141 -84 -235
-192 -523 -226 -618 -253 -695 -16 -47 -33 -94 -38 -105 -20 -42 -149 -409
-145 -414 2 -3 445 -6 985 -5 l983 0 19 55 c11 30 28 77 38 104 18 49 67 182
188 515 34 91 99 273 147 405 47 132 90 249 95 260 5 11 23 61 40 110 32 90
162 447 226 622 19 51 34 95 34 99 0 3 6 20 14 37 13 28 120 321 226 617 87
242 184 510 212 585 41 110 51 137 178 490 62 171 116 319 121 330 4 11 17 45
27 75 11 30 41 114 67 185 25 72 67 186 92 255 25 69 49 134 54 145 18 41 69
189 69 199 0 11 -1905 17 -1951 6z"/>
<path d="M5014 6015 c-12 -9 -74 -176 -428 -1150 -64 -176 -123 -336 -131
-355 -14 -34 -69 -186 -175 -480 -29 -80 -57 -156 -63 -170 -6 -14 -11 -29
-13 -35 -3 -14 -223 -616 -233 -640 -5 -11 -14 -33 -19 -50 -19 -53 -93 -259
-107 -295 -16 -41 -113 -309 -157 -430 -17 -47 -36 -98 -43 -115 -7 -16 -16
-41 -20 -55 -4 -14 -18 -52 -30 -85 -13 -33 -74 -199 -136 -370 -61 -170 -116
-321 -121 -335 -5 -14 -9 -25 -8 -25 1 0 -6 -18 -16 -40 -28 -67 -164 -443
-164 -454 0 -3 445 -6 989 -6 l989 0 15 35 c14 34 108 289 187 510 21 58 70
193 110 300 40 107 78 213 85 235 8 22 26 72 40 110 38 99 95 255 105 285 5
14 47 131 95 260 48 129 149 407 226 618 77 211 146 400 154 420 7 20 41 111
74 202 32 91 100 278 150 415 51 138 114 313 142 390 28 77 55 149 59 160 5
11 22 58 39 105 56 158 132 365 141 385 5 11 32 85 60 165 28 80 57 161 65
180 56 140 116 312 112 317 -11 10 -1959 9 -1973 -2z"/>
</g>
</svg>
